<svg xmlns="http://www.w3.org/2000/svg" xmlns:xlink="http://www.w3.org/1999/xlink" width="2245" zoomAndPan="magnify" viewBox="0 0 1683.75 623.24998" height="831" preserveAspectRatio="xMidYMid meet" version="1.2"><defs/><g id="9e2114e974"><g style="fill:#ffffff;fill-opacity:1;"><g transform="translate(11.506178, 441.302888)"><path style="stroke:none" d="M 30.34375 0 L 30.34375 -241.046875 L 81.453125 -241.046875 L 81.453125 -42.203125 L 179.21875 -42.203125 L 179.21875 0 Z M 30.34375 0 "/></g><g transform="translate(202.270971, 441.302888)"><path style="stroke:none" d="M 30.34375 0 L 30.34375 -241.046875 L 81.453125 -241.046875 L 81.453125 0 Z M 30.34375 0 "/></g><g transform="translate(314.05881, 441.302888)"><path style="stroke:none" d="M 244.1875 0 L 179.21875 0 L 74.359375 -182.359375 L 72.875 -182.359375 C 74.96875 -150.148438 76.015625 -127.175781 76.015625 -113.4375 L 76.015625 0 L 30.34375 0 L 30.34375 -241.046875 L 94.8125 -241.046875 L 199.5 -60.515625 L 200.65625 -60.515625 C 199.007812 -91.835938 198.1875 -113.984375 198.1875 -126.953125 L 198.1875 -241.046875 L 244.1875 -241.046875 Z M 244.1875 0 "/></g><g transform="translate(588.582041, 441.302888)"><path style="stroke:none" d="M 123.328125 0 L 72.21875 0 L 72.21875 -198.515625 L 6.765625 -198.515625 L 6.765625 -241.046875 L 188.78125 -241.046875 L 188.78125 -198.515625 L 123.328125 -198.515625 Z M 123.328125 0 "/></g><g transform="translate(784.128318, 441.302888)"><path style="stroke:none" d="M 81.453125 -134.046875 L 97.9375 -134.046875 C 114.09375 -134.046875 126.019531 -136.738281 133.71875 -142.125 C 141.414062 -147.507812 145.265625 -155.972656 145.265625 -167.515625 C 145.265625 -178.953125 141.332031 -187.085938 133.46875 -191.921875 C 125.613281 -196.753906 113.441406 -199.171875 96.953125 -199.171875 L 81.453125 -199.171875 Z M 81.453125 -92.5 L 81.453125 0 L 30.34375 0 L 30.34375 -241.046875 L 100.578125 -241.046875 C 133.328125 -241.046875 157.5625 -235.082031 173.28125 -223.15625 C 189 -211.238281 196.859375 -193.132812 196.859375 -168.84375 C 196.859375 -154.65625 192.957031 -142.035156 185.15625 -130.984375 C 177.351562 -119.941406 166.304688 -111.289062 152.015625 -105.03125 C 188.285156 -50.84375 211.921875 -15.832031 222.921875 0 L 166.203125 0 L 108.65625 -92.5 Z M 81.453125 -92.5 "/></g><g transform="translate(1007.044479, 441.302888)"><path style="stroke:none" d="M 177.90625 0 L 160.421875 -57.375 L 72.546875 -57.375 L 55.0625 0 L 0 0 L 85.078125 -242.046875 L 147.5625 -242.046875 L 232.96875 0 Z M 148.21875 -100.25 C 132.0625 -152.238281 122.96875 -181.640625 120.9375 -188.453125 C 118.90625 -195.265625 117.445312 -200.648438 116.5625 -204.609375 C 112.9375 -190.546875 102.550781 -155.757812 85.40625 -100.25 Z M 148.21875 -100.25 "/></g><g transform="translate(1240.01825, 441.302888)"><path style="stroke:none" d=""/></g></g><g style="fill:#ffffff;fill-opacity:1;"><g transform="translate(1327.733812, 441.302888)"><path style="stroke:none" d="M 177.90625 0 L 160.421875 -57.375 L 72.546875 -57.375 L 55.0625 0 L 0 0 L 85.078125 -242.046875 L 147.5625 -242.046875 L 232.96875 0 Z M 148.21875 -100.25 C 132.0625 -152.238281 122.96875 -181.640625 120.9375 -188.453125 C 118.90625 -195.265625 117.445312 -200.648438 116.5625 -204.609375 C 112.9375 -190.546875 102.550781 -155.757812 85.40625 -100.25 Z M 148.21875 -100.25 "/></g></g><g style="fill:#ffffff;fill-opacity:1;"><g transform="translate(1560.707568, 441.302888)"><path style="stroke:none" d="M 30.34375 0 L 30.34375 -241.046875 L 81.453125 -241.046875 L 81.453125 0 Z M 30.34375 0 "/></g></g></g></svg>